<?xml version="1.0" encoding="utf-8"?>
<!-- Generator: Adobe Illustrator 16.0.0, SVG Export Plug-In . SVG Version: 6.00 Build 0)  -->
<!DOCTYPE svg PUBLIC "-//W3C//DTD SVG 1.1//EN" "http://www.w3.org/Graphics/SVG/1.1/DTD/svg11.dtd">
<svg version="1.1" id="Layer_1" xmlns="http://www.w3.org/2000/svg" xmlns:xlink="http://www.w3.org/1999/xlink" x="0px" y="0px"
	 width="241px" height="53px" viewBox="0 0 241 53" enable-background="new 0 0 241 53" xml:space="preserve">
<g>
	<path fill="#FFFFFF" d="M13.56,0.171c-7.538,0-13.288,5.824-13.288,13.138s5.692,13.08,13.217,13.08s13.287-5.77,13.287-13.15
		C26.775,5.855,21.098,0.171,13.56,0.171z M13.488,4.546c4.676,0,8.34,3.693,8.34,8.763c0,5.07-3.555,8.703-8.269,8.703
		c-4.676,0-8.34-3.951-8.34-8.773C5.22,8.415,8.774,4.546,13.488,4.546z"/>
	<path fill="#FFFFFF" d="M29.454,21.423c-1.343,0-2.521,1.162-2.521,2.487c0,1.346,1.171,2.486,2.558,2.486
		c1.282,0,2.449-1.187,2.449-2.486C31.939,22.585,30.778,21.423,29.454,21.423z"/>
	<path fill="#FFFFFF" d="M55.196,18.693c-1.788,1.677-3.762,3.318-7.19,3.318c-4.535,0-8.089-3.9-8.089-8.783
		c0-4.881,3.478-8.683,8.089-8.683c3.176,0,5.359,1.643,7.02,3.185l3.044-3.506C55.82,2.1,53.184,0.171,48.042,0.171
		c-7.41,0-13.073,5.628-13.073,13.13c0,7.501,5.544,13.088,12.895,13.088c5.214,0,8-2.145,10.388-4.603L55.196,18.693z"/>
	<path fill="#FFFFFF" d="M63.592,21.423c-1.344,0-2.521,1.162-2.521,2.487c0,1.346,1.171,2.486,2.558,2.486
		c1.283,0,2.45-1.187,2.45-2.486C66.078,22.585,64.916,21.423,63.592,21.423z"/>
	<polygon fill="#FFFFFF" points="74.991,5.012 82.927,5.012 82.927,25.955 87.697,25.955 87.697,5.012 95.633,5.012 95.633,0.6 
		74.991,0.6 	"/>
	<polygon fill="#FFFFFF" points="146.969,17.578 133.822,0.6 129.486,0.6 129.486,25.955 134.148,25.955 134.148,8.48 
		147.686,25.955 151.629,25.955 151.629,0.6 146.969,0.6 	"/>
	<polygon fill="#FFFFFF" points="177.879,17.578 164.736,0.6 160.398,0.6 160.398,25.955 165.062,25.955 165.062,8.48 
		178.598,25.955 182.543,25.955 182.543,0.6 177.879,0.6 	"/>
	<polygon fill="#FFFFFF" points="195.836,15.405 208.383,15.405 208.383,11.137 195.836,11.137 195.836,4.868 209.99,4.868 
		209.99,0.6 191.102,0.6 191.102,25.955 210.17,25.955 210.17,21.691 195.836,21.691 	"/>
	<path fill="#FFFFFF" d="M233.943,14.574c3.342-1.03,5.189-3.484,5.189-6.774c0-3.627-2.252-7.2-8.369-7.2h-12.547v25.355h4.732
		v-10.55H229l6.109,10.55h0.039h5.58L233.943,14.574z M230.482,11.137c0,0-7.332,0-7.533,0c0-0.199,0-6.069,0-6.269
		c0.201,0,7.506,0,7.506,0c2.479,0,3.9,1.14,3.9,3.121C234.355,9.972,232.836,11.137,230.482,11.137z"/>
	<g>
		<g>
			<g>
				<g>
					<path fill="#D77D31" d="M120.451,9.079c0-3.901-0.332-6.577-4.714-8.165c-1.461-0.486-3.152-0.743-5.021-0.743
						c-2.554,0-4.237,0.372-6.398,1.378c-1.805,0.83-3.912,2.68-3.912,5.166c0,2.091,1.146,3.443,2.919,3.443
						c1.984,0,3.076-0.962,3.076-2.709c0-0.717-0.397-1.627-0.801-2.215c-0.404-0.587-0.53-0.948-0.031-1.361
						c0.999-0.828,2.849-1.067,4.359-1.067c3.796,0,5.476,1.275,5.476,4.633c0,1.194,0,2.833,0,2.833
						c-4.24,0.602-16.604,2.411-16.604,9.73c0,3.999,2.82,6.387,7.542,6.387c3.746,0,7.151-1.488,9.397-4.078
						c0.767,2.591,2.229,3.763,4.732,3.763c1.479,0,3.035-0.616,4.025-1.76c0.877-1.011,0.225-2.169-0.908-1.674
						c-1.098,0.481-3.137,0.915-3.137-1.853C120.451,17.985,120.451,9.079,120.451,9.079z M108.495,23.492
						c-2.126,0-4.277-1.361-4.277-3.962c0-4.96,5.594-5.97,11.185-6.878c0,0.279,0,1.24,0,2.15c0,2.361-0.042,4.198-1.237,5.748
						C112.812,22.337,110.585,23.492,108.495,23.492z"/>
				</g>
				<g>
					<path fill="#D77D31" d="M108.773,41.468c0-1.634-0.138-2.753-1.974-3.418c-0.61-0.204-1.318-0.312-2.102-0.312
						c-1.068,0-1.773,0.156-2.678,0.578c-0.756,0.346-1.639,1.121-1.639,2.162c0,0.874,0.48,1.44,1.223,1.44
						c0.831,0,1.288-0.401,1.288-1.133c0-0.3-0.166-0.682-0.336-0.927c-0.169-0.247-0.222-0.397-0.013-0.571
						c0.418-0.347,1.191-0.448,1.824-0.448c1.59,0,2.292,0.536,2.292,1.941c0,0.499,0,1.186,0,1.186
						c-1.774,0.252-6.949,1.01-6.949,4.074c0,1.673,1.18,2.672,3.156,2.672c1.568,0,2.994-0.623,3.934-1.706
						c0.321,1.084,0.934,1.574,1.981,1.574c0.618,0,1.269-0.258,1.685-0.736c0.367-0.423,0.094-0.907-0.38-0.7
						c-0.46,0.2-1.313,0.383-1.313-0.775C108.773,45.196,108.773,41.468,108.773,41.468z M103.77,47.5
						c-0.89,0-1.791-0.568-1.791-1.658c0-2.076,2.341-2.499,4.682-2.878c0,0.116,0,0.519,0,0.899c0,0.988-0.017,1.758-0.518,2.406
						C105.576,47.018,104.645,47.5,103.77,47.5z"/>
					<path fill="#D77D31" d="M185.314,41.468c0-1.634-0.139-2.753-1.975-3.418c-0.609-0.204-1.318-0.312-2.102-0.312
						c-1.068,0-1.773,0.156-2.676,0.578c-0.756,0.346-1.639,1.121-1.639,2.162c0,0.874,0.479,1.44,1.223,1.44
						c0.828,0,1.287-0.401,1.287-1.133c0-0.3-0.168-0.682-0.338-0.927c-0.168-0.247-0.221-0.397-0.01-0.571
						c0.416-0.347,1.191-0.448,1.822-0.448c1.59,0,2.293,0.536,2.293,1.941c0,0.499,0,1.186,0,1.186
						c-1.773,0.252-6.951,1.01-6.951,4.074c0,1.673,1.182,2.672,3.158,2.672c1.568,0,2.994-0.623,3.936-1.706
						c0.32,1.084,0.932,1.574,1.979,1.574c0.619,0,1.271-0.258,1.686-0.736c0.367-0.423,0.096-0.907-0.381-0.7
						c-0.459,0.2-1.312,0.383-1.312-0.775C185.314,45.196,185.314,41.468,185.314,41.468z M180.311,47.5
						c-0.891,0-1.791-0.568-1.791-1.658c0-2.076,2.342-2.499,4.682-2.878c0,0.116,0,0.519,0,0.899c0,0.988-0.018,1.758-0.518,2.406
						C182.117,47.018,181.184,47.5,180.311,47.5z"/>
					<path fill="#D77D31" d="M152.088,47.336c-0.805,0-1.449-0.283-1.971-0.792c-0.662-0.65-0.975-1.733-0.975-3.032h7.1
						c0,0-0.09-2.251-0.852-3.522c-0.883-1.474-2.172-2.255-3.736-2.255c-3.24,0-4.99,2.906-4.99,5.641
						c0,1.418,0.221,2.606,1.293,3.797c0.918,1.021,2.184,1.54,3.764,1.54c2.125,0,3.605-1.019,4.572-3.205l-0.961-0.538
						C154.268,46.981,153.242,47.336,152.088,47.336z M152.846,42.352c0,0-3.367,0-3.641,0c0.113-1.365,0.58-3.479,2.385-3.479
						c1.547,0,2.098,1.454,2.098,2.812C153.688,42.284,153.545,42.355,152.846,42.352z"/>
					<path fill="#D77D31" d="M201.996,47.336c-0.805,0-1.451-0.283-1.969-0.792c-0.666-0.65-0.977-1.733-0.977-3.032h7.098
						c0,0-0.09-2.251-0.852-3.522c-0.881-1.474-2.172-2.255-3.734-2.255c-3.24,0-4.99,2.906-4.99,5.641
						c0,1.418,0.221,2.606,1.291,3.797c0.918,1.021,2.186,1.54,3.764,1.54c2.125,0,3.605-1.019,4.574-3.205l-0.961-0.538
						C204.174,46.981,203.148,47.336,201.996,47.336z M202.752,42.352c0,0-3.367,0-3.641,0c0.115-1.365,0.582-3.479,2.387-3.479
						c1.545,0,2.096,1.454,2.096,2.812C203.594,42.284,203.453,42.355,202.752,42.352z"/>
					<path fill="#D77D31" d="M163.529,47.141c-2.344,0-2.834-2.225-2.834-4.09c0-1.928,0.691-4.179,2.639-4.179
						c0.287,0,1.121,0.212,1.121,0.536c0,0.215-0.586,0.603-0.586,1.258c0,0.782,0.592,1.326,1.436,1.326
						c0.887,0,1.414-0.633,1.414-1.695c0-0.584-0.324-1.197-0.891-1.686c-0.727-0.615-1.465-0.877-2.473-0.877
						c-3.172,0-5.143,2.235-5.143,5.836c0,2.527,1.703,5.142,4.557,5.142c3.029,0,3.783-2.165,4.246-3.354l-1.027-0.428
						C165.57,46.023,164.869,47.141,163.529,47.141z"/>
					<path fill="#D77D31" d="M171.676,35.426c0.75,0,1.436-0.673,1.436-1.414c0-0.767-0.646-1.414-1.414-1.414
						c-0.754,0-1.414,0.641-1.414,1.372C170.283,34.746,170.934,35.426,171.676,35.426z"/>
					<path fill="#D77D31" d="M194.195,44.215c0,0,0.084,2.947-1.533,2.947c-1.176,0-1.273-0.792-1.273-1.533c0,0,0-6.086,0-6.344
						c0.25,0,3.229,0,3.229,0V38.06c0,0-2.979,0-3.229,0c0-0.255,0-4.378,0-4.378h-1.129c-0.113,1.811-0.436,4.238-2.912,4.386
						v1.218c0,0,1.545,0,1.775,0c0,0.26,0,6.95,0,6.95c0,1.412,1.203,2.477,2.801,2.477c0.982,0,1.77-0.291,2.336-0.864
						c0.729-0.732,1.072-1.827,1.072-3.633H194.195z"/>
					<path fill="#D77D31" d="M122.07,41.587c-0.109-0.505-0.289-0.95-0.704-1.763c-0.907-1.43-2.018-2.09-3.502-2.09
						c-1.19,0-2.294,0.646-2.976,1.706v-1.389l-3.878,0.233v1.206c0,0,0.325,0,0.809,0c0.577,0,0.904,0.12,0.904,0.653
						c0,0,0,10.651,0,10.951c0,0.561-0.09,0.711-0.796,0.711c-0.745,0-0.874,0-0.874,0v1.022h5.775v-1.02l-1.048-0.003
						c-0.706,0-0.796-0.15-0.796-0.711l0.002-3.807c0.637,0.885,1.658,1.423,2.833,1.423c2.784,0,4.449-2.77,4.449-5.445
						C122.27,42.689,122.201,42.107,122.07,41.587z M117.431,47.271c-1.036,0-1.647-0.801-1.919-1.277
						c-0.368-0.612-0.546-1.447-0.546-2.554c0-1.946,0.428-4.265,2.465-4.265c1.61,0,2.101,1.504,2.25,2.4
						c0.089,0.602,0.107,1.037,0.107,1.582C119.788,44.693,119.481,47.271,117.431,47.271z"/>
					<path fill="#D77D31" d="M134.701,41.587c-0.109-0.505-0.287-0.95-0.705-1.763c-0.904-1.43-2.016-2.09-3.5-2.09
						c-1.189,0-2.293,0.646-2.975,1.706v-1.389l-3.879,0.233v1.206c0,0,0.324,0,0.809,0c0.578,0,0.904,0.12,0.904,0.653
						c0,0,0,10.651,0,10.951c0,0.561-0.09,0.711-0.797,0.711c-0.744,0-0.873,0-0.873,0v1.022h5.775v-1.02l-1.047-0.003
						c-0.707,0-0.797-0.15-0.797-0.711l0.002-3.807c0.637,0.885,1.658,1.423,2.834,1.423c2.785,0,4.445-2.77,4.445-5.445
						C134.898,42.689,134.832,42.107,134.701,41.587z M130.062,47.271c-1.035,0-1.646-0.801-1.92-1.277
						c-0.367-0.612-0.545-1.447-0.545-2.554c0-1.946,0.428-4.265,2.465-4.265c1.609,0,2.102,1.504,2.25,2.4
						c0.09,0.602,0.107,1.037,0.107,1.582C132.42,44.693,132.113,47.271,130.062,47.271z"/>
					<path fill="#D77D31" d="M138.385,44.694v1.957c0,0.562-0.094,0.712-0.801,0.712c-0.744,0-1.021,0-1.021,0v1.023h6.123
						l-0.002-1.02l-1.24-0.004c-0.707,0-0.797-0.149-0.797-0.712v-2.085c0-0.05,0.08-4.854,2.553-5.55
						c-0.16,0.255-0.264,0.554-0.264,0.847c0,0.734,0.553,1.307,1.262,1.307c0.871,0,1.434-0.632,1.434-1.609
						c0-1.041-0.793-1.826-1.846-1.826c-1.725,0-2.701,1.297-3.139,2.344c0-0.742,0-2.026,0-2.026l-4.258,0.232v1.175h1.092
						c0.578,0,0.904,0.12,0.904,0.652V44.694z"/>
					<path fill="#D77D31" d="M169.766,39.453c0.576,0,0.902,0.121,0.902,0.654v6.544c0,0.562-0.102,0.712-0.807,0.712
						c-0.746,0-1.074,0-1.074,0v1.023h5.973v-1.02l-1.027-0.004c-0.707,0-0.795-0.149-0.795-0.712v-8.599l-4.322,0.231v1.169
						H169.766z"/>
				</g>
			</g>
		</g>
		<g>
			<path fill="#D77D31" d="M208.637,46.664V46.65c0-1.336,1.084-2.453,2.459-2.453l0,0c1.371,0.003,2.441,1.105,2.445,2.439l0,0
				v0.014c0,1.334-1.084,2.451-2.459,2.451l0,0C209.709,49.1,208.639,47.995,208.637,46.664L208.637,46.664z M209.086,46.664
				c0,1.088,0.871,1.987,1.996,1.987l0,0c1.125-0.002,2.008-0.912,2.01-2.001l0,0v-0.014c0-1.091-0.871-1.988-1.996-1.99l0,0
				c-1.125,0.002-2.008,0.914-2.01,2.004l0,0V46.664L209.086,46.664z"/>
			<path fill="#D77D31" d="M211.643,46.92c0.303-0.109,0.51-0.35,0.51-0.732v-0.011c0-0.21-0.066-0.389-0.195-0.517
				c-0.166-0.166-0.412-0.26-0.732-0.26h-1.051v2.37h0.521v-0.764h0.412l0.506,0.764h0.609L211.643,46.92z M211.625,46.22
				c0,0.196-0.141,0.338-0.406,0.338h-0.523v-0.694h0.512c0.258,0,0.418,0.116,0.418,0.344V46.22z"/>
		</g>
	</g>
</g>
</svg>
