<?xml version="1.0" encoding="utf-8"?>
<!-- Generator: Adobe Illustrator 17.0.0, SVG Export Plug-In . SVG Version: 6.00 Build 0)  -->
<!DOCTYPE svg PUBLIC "-//W3C//DTD SVG 1.1//EN" "http://www.w3.org/Graphics/SVG/1.1/DTD/svg11.dtd">
<svg version="1.1" xmlns="http://www.w3.org/2000/svg" xmlns:xlink="http://www.w3.org/1999/xlink" x="0px" y="0px"
	 width="127.478px" height="48.441px" viewBox="0 0 127.478 48.441" enable-background="new 0 0 127.478 48.441"
	 xml:space="preserve">
<g id="Layer_1">
	<g>
		<g id="Your_Icon_7_" opacity="0.3">
			<g>
				<path fill="#FFFFFF" d="M116.143,26.076l-0.49-0.353c-0.443-0.319-10.845-7.88-10.845-14.116c0-3.767,2.362-6.297,5.878-6.297
					c1.877,0,3.826,0.958,5.458,2.657c1.632-1.7,3.58-2.657,5.458-2.657c3.516,0,5.878,2.531,5.878,6.297
					c0,6.236-10.402,13.797-10.844,14.116L116.143,26.076z M110.685,6.989c-3.095,0-4.198,2.385-4.198,4.618
					c0,4.225,6.56,10.054,9.656,12.391c3.095-2.337,9.656-8.166,9.656-12.391c0-2.233-1.103-4.618-4.198-4.618
					c-1.466,0-3.036,0.823-4.378,2.28c1.131,1.578,1.816,3.344,1.858,4.833c0.026,0.929-0.335,1.873-0.968,2.524
					c-0.538,0.553-1.238,0.859-1.971,0.859s-1.432-0.305-1.97-0.858c-0.633-0.651-0.995-1.594-0.969-2.524
					c0.042-1.489,0.727-3.256,1.858-4.833C113.721,7.812,112.152,6.989,110.685,6.989z M116.143,10.667
					c-0.763,1.186-1.231,2.456-1.26,3.483c-0.013,0.479,0.176,0.979,0.494,1.306c0.452,0.464,1.082,0.463,1.532,0
					c0.318-0.327,0.507-0.827,0.494-1.306C117.374,13.124,116.906,11.853,116.143,10.667z"/>
			</g>
		</g>
		<path fill="#FFFFFF" d="M102.441,32.937c-2.211,5.934-5.2,9.541-8.634,9.541c-2.679,0-3.807-2.793-3.807-6.283v-0.605
			c2-0.645,3.739-2.501,3.739-2.501h0.014c4.572-1,6.921-5.818,6.921-9.195c0-2.676-1.472-4.499-4.383-4.499
			c-5.347,0-9.244,6.656-10.473,13.331c-0.092,0.502-0.165,1.13-0.223,1.67c-1.204,0.246-2.295,0.433-3.285,0.498
			c0.363-1.571,0.583-3.146,0.583-4.666c0-5.994-1.337-10.108-5.525-10.108c-1.629,0-3.142,0.765-4.365,1.986l0.233-1.102
			l0.176-0.986c5.12-6.107,8.434-12.39,8.434-16.173c0-2.094-1.047-3.431-3.434-3.431c-5.525,0-7.154,9.268-9.89,24.278
			c-0.542,2.943-0.973,4.397-1.22,8.397h-0.011c-2.5,6-4.705,9.99-6.567,9.99c-1.339,0-2.208-1.261-2.208-5.16
			c0-0.119,0.003-0.81,0.004-0.932C65.773,25.938,68.845,9.088,68.845,9.088h-0.014c0.292-1,0.508-2.501,0.508-3.977
			C69.339,2.146,68.465,0,65.44,0c-3.374,0-7.038,6.724-9.657,21.325c-0.749,4.285-1.305,8.204-1.606,11.538l-0.253,5.42
			c0.005,0.437,0.018,0.875,0.037,1.283c-5.117,4.945-9.286,2.763-9.286,2.763c-1.703-0.502-2.39-2.312-2.636-4.627
			c6.229-2.56,9.558-8.957,9.558-13.435c0-2.619-1.164-5.03-3.607-5.03c-6.459,0-10.824,8.851-10.881,16.851h-0.465
			c-1.918,0-3.374-0.208-4.478-1.315c1.802-4.827,2.966-9.878,2.966-13.542c0-3.258-1.047-4.998-3.374-4.998
			c-2.849,0-4.595,4.657-4.595,9.66c0,2.733,0.522,5.617,1.686,7.942c-1.802,5.003-4.129,9.092-5.585,9.092
			c-0.871,0-1.223-1.526-1.223-3.563c0-4.07,0.511-10.275,2.023-18.275h-0.006c0,0,0.006,0.268,0.006,0.248
			c0-0.57-0.931-1.132-2.075-1.132c-1.11,0-2.012,0.883-2.072,0.883h-0.003c-0.264,1-0.502,2.723-0.721,3.858
			c-1.796,7.705-3.686,13.349-5.301,17.015c-0.817,1.862-1.629,2.903-2.429,2.551c-1.331-0.585-2.912-6.307-2.548-11.614
			c2.001-1.666,3.63-4.048,4.728-6.551c2.015-4.578,2.268-9.48-0.341-10.627c-2.131-0.937-3.837,0.35-5.148,3.329
			c-1.476,3.357-2.404,8.731-2.702,13.882c-1.374,0.534-2.793,0.662-4.407,0.024c-0.02-0.014-0.043-0.031-0.062-0.042
			c-0.275-0.131-0.661,0.111-0.863,0.537c-0.173,0.363-0.153,0.744,0.026,0.928L0.14,34.39c0.011,0.006,0.023,0.011,0.034,0.017
			c0.023,0.017,0.048,0.037,0.077,0.051c0.037,0.017,0.079,0.026,0.122,0.031c1.725,0.704,3.374,0.789,4.878,0.414
			c-0.088,6.124,1.059,11.749,4.305,13.179c2.824,1.243,5.142-0.851,7.086-4.7c0,0,0.431-0.937,0.976-2.262
			c0.343,3.857,1.652,6.36,4.538,6.36c3.55,0,6.868-4.516,9.252-10.16c1.28,0.99,2.912,1.768,4.887,1.768h0.871
			c0.349,3,2.489,8.472,7.083,8.472c0.15,0,0.426-0.048,0.426-0.057c3.679-0.226,6.883-2.07,9.65-4.777
			c0.631,3.058,2.039,4.712,4.471,4.712c3.176,0,5.565-3.084,8.278-9.578c0.094,5.622,1.643,9.276,5.812,9.276
			c2.736,0,5.355-2.735,7.274-6.228l1.164-2.646c0.166-0.456,0.318-0.923,0.463-1.393c1.24,0.047,2.465-0.029,3.632-0.18
			c-0.02,0.379-0.028,0.615-0.028,0.615c0.003,5.466,2.1,10.117,7.16,10.117c5.701,0,8.61-6.05,11.519-13.67
			C104.07,33.402,102.79,32.937,102.441,32.937z M78.705,4.194c0.292,0,0.525,0.292,0.525,0.814c0,0.116-0.057,0.292-0.057,0.465
			c-0.761,3.783-2.968,7.566-4.83,10.299C76.959,4.776,78.299,4.194,78.705,4.194z M11.715,19.479
			c0.352-0.8,0.647-1.178,1.124-0.968c0.8,0.352,0.358,3.525-1.118,6.879c-0.633,1.436-1.496,2.966-2.5,4.237
			C9.715,25.907,10.543,22.141,11.715,19.479z M29.895,30.726c-0.406-1.572-0.582-3.318-0.582-4.89c0-3.664,0.874-6.746,1.745-6.746
			c0.525,0,0.641,0.465,0.641,1.337C31.7,23.336,30.942,27.116,29.895,30.726z M47.524,23.336c0.409,0,0.639,0.525,0.639,1.34
			c0,2.5-2.035,8.028-6.224,10.761C42.172,29.968,44.732,23.336,47.524,23.336z M59.509,27.581
			c1.686-10.818,5.117-23.387,6.689-23.387c0.289,0,0.582,0.87,0.582,1.685c-0.014,1.507-0.216,2.209-0.556,5.209h-0.001
			c-2.223,9-4.812,17.293-7.41,22.183c0.051-0.512,0.106-1.265,0.168-1.801L59.509,27.581z M76.088,23.92
			c1.513,0,2.211,1.975,2.211,5.176c0,1.737-0.191,3.613-0.531,5.411c-4.763-1.477-4.986-6.116-4.807-8.308
			c0.017-0.032,0.033-0.066,0.051-0.097c0.008-0.017,0.014-0.026,0.014-0.026C73.758,24.775,74.802,23.92,76.088,23.92z
			 M76.61,38.754c-0.488,1.396-0.988,2.151-0.988,2.151c-0.755,1.223-1.629,1.921-2.619,1.921c-0.761,0-1.192-0.673-1.427-1.828
			l-0.011,0.028c-0.679-3.713-0.582-6.84-0.221-9.262c1.714,2.256,3.83,3.607,6.074,4.349C77.187,37.046,76.916,37.938,76.61,38.754
			z M95.809,23.336c0.582,0,0.934,0.585,0.934,1.456c0,2.151-1.921,6.167-6.283,8.318C91.157,28.282,93.425,23.336,95.809,23.336z"
			/>
	</g>
</g>
<g id="Layer_2">
</g>
<g id="Layer_3">
</g>
</svg>
